RBDS020runT25_grf
version=1
nRows=27
nColumns=19
inDegrees=no
endheader
time	ground_force_r_vx	ground_force_r_vy	ground_force_r_vz	ground_force_r_px	ground_force_r_py	ground_force_r_pz	ground_force_r_mx	ground_force_r_my	ground_force_r_mz	ground_force_l_vx	ground_force_l_vy	ground_force_l_vz	ground_force_l_px	ground_force_l_py	ground_force_l_pz	ground_force_l_mx	ground_force_l_my	ground_force_l_mz
      7.49900000	   -141.92488214	   1202.77643602	    -23.55923367	      2.28886550	      0.00000000	      1.05531445	      0.00000000	      4.47292458	     -0.00000000	      0.00000000	      0.00000000	      0.00000000	      0.00000000	      0.00000000	      0.00000000	      0.00000000	      0.00000000	      0.00000000
      7.50000000	   -142.72169192	   1212.86445952	    -24.86302566	      2.28720097	      0.00000000	      1.05539112	      0.00000000	      4.39044696	     -0.00000000	      0.00000000	      0.00000000	      0.00000000	      0.00000000	      0.00000000	      0.00000000	      0.00000000	      0.00000000	      0.00000000
      7.50100000	   -143.09487118	   1222.08937313	    -26.23688153	      2.28548160	      0.00000000	      1.05549156	      0.00000000	      4.31293079	     -0.00000000	      0.00000000	      0.00000000	      0.00000000	      0.00000000	      0.00000000	      0.00000000	      0.00000000	      0.00000000	      0.00000000
      7.50200000	   -143.46805043	   1231.31428673	    -27.61073740	      2.28376224	      0.00000000	      1.05559200	      0.00000000	      4.23541463	     -0.00000000	      0.00000000	      0.00000000	      0.00000000	      0.00000000	      0.00000000	      0.00000000	      0.00000000	      0.00000000	      0.00000000
      7.50300000	   -143.84122969	   1240.53920034	    -28.98459327	      2.28204287	      0.00000000	      1.05569245	      0.00000000	      4.15789846	     -0.00000000	      0.00000000	      0.00000000	      0.00000000	      0.00000000	      0.00000000	      0.00000000	      0.00000000	      0.00000000	      0.00000000
      7.50400000	   -143.92954141	   1249.21647539	    -30.38469676	      2.28028644	      0.00000000	      1.05580710	      0.00000000	      4.08553957	     -0.00000000	      0.00000000	      0.00000000	      0.00000000	      0.00000000	      0.00000000	      0.00000000	      0.00000000	      0.00000000	      0.00000000
      7.50500000	   -143.87541936	   1257.61993116	    -31.79792408	      2.27851149	      0.00000000	      1.05592887	      0.00000000	      4.01575932	     -0.00000000	      0.00000000	      0.00000000	      0.00000000	      0.00000000	      0.00000000	      0.00000000	      0.00000000	      0.00000000	      0.00000000
      7.50600000	   -143.82129730	   1266.02338693	    -33.21115139	      2.27673653	      0.00000000	      1.05605064	      0.00000000	      3.94597907	     -0.00000000	      0.00000000	      0.00000000	      0.00000000	      0.00000000	      0.00000000	      0.00000000	      0.00000000	      0.00000000	      0.00000000
      7.50700000	   -143.62633787	   1274.16325168	    -34.62726389	      2.27494331	      0.00000000	      1.05617864	      0.00000000	      3.87952047	     -0.00000000	      0.00000000	      0.00000000	      0.00000000	      0.00000000	      0.00000000	      0.00000000	      0.00000000	      0.00000000	      0.00000000
      7.50800000	   -143.14970367	   1281.77593438	    -36.04914676	      2.27311355	      0.00000000	      1.05631911	      0.00000000	      3.81970514	     -0.00000000	      0.00000000	      0.00000000	      0.00000000	      0.00000000	      0.00000000	      0.00000000	      0.00000000	      0.00000000	      0.00000000
      7.50900000	   -142.67306947	   1289.38861707	    -37.47102963	      2.27128379	      0.00000000	      1.05645959	      0.00000000	      3.75988981	     -0.00000000	      0.00000000	      0.00000000	      0.00000000	      0.00000000	      0.00000000	      0.00000000	      0.00000000	      0.00000000	      0.00000000
      7.51000000	   -142.19643527	   1297.00129977	    -38.89291250	      2.26945402	      0.00000000	      1.05660006	      0.00000000	      3.70007449	     -0.00000000	      0.00000000	      0.00000000	      0.00000000	      0.00000000	      0.00000000	      0.00000000	      0.00000000	      0.00000000	      0.00000000
      7.51100000	   -141.31008682	   1303.84283636	    -40.29375407	      2.26757176	      0.00000000	      1.05675654	      0.00000000	      3.65181039	     -0.00000000	      0.00000000	      0.00000000	      0.00000000	      0.00000000	      0.00000000	      0.00000000	      0.00000000	      0.00000000	      0.00000000
      7.51200000	   -140.42373836	   1310.68437294	    -41.69459564	      2.26568949	      0.00000000	      1.05691302	      0.00000000	      3.60354629	     -0.00000000	      0.00000000	      0.00000000	      0.00000000	      0.00000000	      0.00000000	      0.00000000	      0.00000000	      0.00000000	      0.00000000
      7.51300000	   -139.53738990	   1317.52590953	    -43.09543722	      2.26380723	      0.00000000	      1.05706950	      0.00000000	      3.55528219	     -0.00000000	      0.00000000	      0.00000000	      0.00000000	      0.00000000	      0.00000000	      0.00000000	      0.00000000	      0.00000000	      0.00000000
      7.51400000	   -138.39123795	   1323.85952437	    -44.46373074	      2.26189242	      0.00000000	      1.05723483	      0.00000000	      3.51530661	     -0.00000000	      0.00000000	      0.00000000	      0.00000000	      0.00000000	      0.00000000	      0.00000000	      0.00000000	      0.00000000	      0.00000000
      7.51500000	   -137.11518426	   1329.93917833	    -45.81575024	      2.25996135	      0.00000000	      1.05740458	      0.00000000	      3.47947530	     -0.00000000	      0.00000000	      0.00000000	      0.00000000	      0.00000000	      0.00000000	      0.00000000	      0.00000000	      0.00000000	      0.00000000
      7.51600000	   -135.83913058	   1336.01883229	    -47.16776974	      2.25803027	      0.00000000	      1.05757434	      0.00000000	      3.44364399	     -0.00000000	      0.00000000	      0.00000000	      0.00000000	      0.00000000	      0.00000000	      0.00000000	      0.00000000	      0.00000000	      0.00000000
      7.51700000	   -134.44189170	   1341.84459380	    -48.49513123	      2.25608455	      0.00000000	      1.05774763	      0.00000000	      3.41200850	     -0.00000000	      0.00000000	      0.00000000	      0.00000000	      0.00000000	      0.00000000	      0.00000000	      0.00000000	      0.00000000	      0.00000000
      7.51800000	   -132.80228245	   1347.16257042	    -49.77317669	      2.25410956	      0.00000000	      1.05792797	      0.00000000	      3.38876462	     -0.00000000	      0.00000000	      0.00000000	      0.00000000	      0.00000000	      0.00000000	      0.00000000	      0.00000000	      0.00000000	      0.00000000
      7.51900000	   -131.16267319	   1352.48054703	    -51.05122215	      2.25213457	      0.00000000	      1.05810831	      0.00000000	      3.36552075	     -0.00000000	      0.00000000	      0.00000000	      0.00000000	      0.00000000	      0.00000000	      0.00000000	      0.00000000	      0.00000000	      0.00000000
      7.52000000	   -129.52306394	   1357.79852365	    -52.32926761	      2.25015958	      0.00000000	      1.05828866	      0.00000000	      3.34227688	     -0.00000000	      0.00000000	      0.00000000	      0.00000000	      0.00000000	      0.00000000	      0.00000000	      0.00000000	      0.00000000	      0.00000000
      7.52100000	   -127.55093220	   1362.34770640	    -53.51132592	      2.24814654	      0.00000000	      1.05847697	      0.00000000	      3.33106745	     -0.00000000	      0.00000000	      0.00000000	      0.00000000	      0.00000000	      0.00000000	      0.00000000	      0.00000000	      0.00000000	      0.00000000
      7.52200000	   -125.57880046	   1366.89688915	    -54.69338423	      2.24613350	      0.00000000	      1.05866527	      0.00000000	      3.31985802	     -0.00000000	      0.00000000	      0.00000000	      0.00000000	      0.00000000	      0.00000000	      0.00000000	      0.00000000	      0.00000000	      0.00000000
      7.52300000	   -123.60666872	   1371.44607190	    -55.87544255	      2.24412046	      0.00000000	      1.05885358	      0.00000000	      3.30864859	     -0.00000000	      0.00000000	      0.00000000	      0.00000000	      0.00000000	      0.00000000	      0.00000000	      0.00000000	      0.00000000	      0.00000000
      7.52400000	   -121.43589774	   1375.47442872	    -56.98113247	      2.24208642	      0.00000000	      1.05904551	      0.00000000	      3.30466125	     -0.00000000	      0.00000000	      0.00000000	      0.00000000	      0.00000000	      0.00000000	      0.00000000	      0.00000000	      0.00000000	      0.00000000
      7.52500000	   -119.16580712	   1379.24237259	    -58.04863821	      2.24004187	      0.00000000	      1.05923925	      0.00000000	      3.30428495	     -0.00000000	      0.00000000	      0.00000000	      0.00000000	      0.00000000	      0.00000000	      0.00000000	      0.00000000	      0.00000000	      0.00000000
